<svg xmlns="http://www.w3.org/2000/svg" viewBox="0 0 1920 1080" preserveAspectRatio="xMidYMid slice">
  <defs>
    <linearGradient id="sky" x1="0%" y1="0%" x2="100%" y2="100%">
      <stop offset="0%" stop-color="#0c1a14"/>
      <stop offset="35%" stop-color="#134e3f"/>
      <stop offset="70%" stop-color="#0f172a"/>
      <stop offset="100%" stop-color="#020617"/>
    </linearGradient>
    <linearGradient id="warm" x1="0%" y1="100%" x2="100%" y2="0%">
      <stop offset="0%" stop-color="#fbbf24" stop-opacity="0.12"/>
      <stop offset="100%" stop-color="#34d399" stop-opacity="0.08"/>
    </linearGradient>
    <filter id="blur" x="-20%" y="-20%" width="140%" height="140%">
      <feGaussianBlur stdDeviation="48"/>
    </filter>
  </defs>
  <rect width="100%" height="100%" fill="url(#sky)"/>
  <circle cx="420" cy="180" r="320" fill="#10b981" fill-opacity="0.15" filter="url(#blur)"/>
  <circle cx="1580" cy="320" r="280" fill="#fbbf24" fill-opacity="0.1" filter="url(#blur)"/>
  <rect width="100%" height="100%" fill="url(#warm)"/>
  <g fill="#0f172a" fill-opacity="0.45">
    <path d="M0 720 L240 520 L240 1080 L0 1080 Z"/>
    <path d="M220 680 L520 420 L520 1080 L220 1080 Z"/>
    <path d="M500 640 L820 480 L820 1080 L500 1080 Z"/>
    <path d="M780 720 L1120 560 L1120 1080 L780 1080 Z"/>
    <path d="M1080 640 L1420 400 L1420 1080 L1080 1080 Z"/>
    <path d="M1380 700 L1680 540 L1680 1080 L1380 1080 Z"/>
    <path d="M1620 760 L1920 620 L1920 1080 L1620 1080 Z"/>
  </g>
  <g fill="#ecfdf5" fill-opacity="0.06" stroke="#34d399" stroke-opacity="0.12" stroke-width="1">
    <rect x="980" y="380" width="8" height="200"/>
    <rect x="992" y="420" width="8" height="160"/>
    <rect x="1004" y="400" width="8" height="180"/>
  </g>
</svg>
